<?xml version="1.0" standalone="no"?><!DOCTYPE svg PUBLIC "-//W3C//DTD SVG 1.1//EN" "http://www.w3.org/Graphics/SVG/1.1/DTD/svg11.dtd"><svg t="1642441225670" class="icon" viewBox="0 0 1024 1024" version="1.1" xmlns="http://www.w3.org/2000/svg" p-id="6896" xmlns:xlink="http://www.w3.org/1999/xlink" width="24" height="24"><defs><style type="text/css"></style></defs><path d="M874.666667 512h-42.666667v-100.266667C832 243.52 688.448 106.666667 512 106.666667S192 243.52 192 411.733333V512H149.333333a64 64 0 0 0-64 64v213.333333a64 64 0 0 0 64 64h42.666667a64 64 0 0 0 64-64V411.733333C256 278.805333 370.837333 170.666667 512 170.666667s256 108.138667 256 241.066666V789.333333a64 64 0 0 0 64 64h42.666667a64 64 0 0 0 64-64V576a64 64 0 0 0-64-64z" fill="#0367FD" p-id="6897"></path><path d="M557.162667 706.666667h-0.704a32.042667 32.042667 0 0 1-28.821334-19.648l-49.216-117.696-11.776 31.274666a32 32 0 0 1-29.952 20.736H341.333333a32 32 0 1 1 0-64h73.237334l32.362666-85.930666c4.629333-12.266667 16.256-20.48 29.376-20.736 12.458667-0.554667 25.045333 7.552 30.101334 19.648l52.501333 125.546666 9.472-20.138666A32.021333 32.021333 0 0 1 597.333333 557.354667h85.333334a32 32 0 0 1 0 64h-65.024l-31.530667 66.965333a32 32 0 0 1-28.949333 18.346667z" fill="#0367FD" p-id="6898"></path></svg>