<?xml version="1.0" standalone="no"?><!DOCTYPE svg PUBLIC "-//W3C//DTD SVG 1.1//EN" "http://www.w3.org/Graphics/SVG/1.1/DTD/svg11.dtd"><svg t="1642441496992" class="icon" viewBox="0 0 1024 1024" version="1.1" xmlns="http://www.w3.org/2000/svg" p-id="10985" xmlns:xlink="http://www.w3.org/1999/xlink" width="24" height="24"><defs><style type="text/css"></style></defs><path d="M187.733333 870.4c-5.12 0-10.24-1.706667-15.36-3.413333-17.066667-8.533333-23.893333-29.013333-15.36-46.08l102.4-204.8c5.12-10.24 17.066667-18.773333 29.013334-18.773334s23.893333 5.12 30.72 15.36l102.4 155.306667 162.133333-337.92c5.12-11.946667 17.066667-18.773333 29.013333-18.773333s23.893333 5.12 30.72 17.066666l238.933334 392.533334c10.24 15.36 5.12 37.546667-11.946667 46.08-15.36 10.24-37.546667 5.12-46.08-11.946667L617.813333 515.413333l-160.426666 336.213334c-5.12 10.24-15.36 18.773333-29.013334 18.773333-11.946667 0-23.893333-5.12-30.72-15.36L293.546667 699.733333l-76.8 151.893334c-5.12 11.946667-17.066667 18.773333-29.013334 18.773333z" fill="#3793DF" p-id="10986"></path><path d="M844.8 887.466667h-648.533333c-37.546667 0-68.266667-30.72-68.266667-68.266667V307.2c0-37.546667 30.72-68.266667 68.266667-68.266667h648.533333c37.546667 0 68.266667 30.72 68.266667 68.266667v512c0 37.546667-30.72 68.266667-68.266667 68.266667z m0-68.266667v34.133333-34.133333z m-648.533333-512v512h648.533333V307.2h-648.533333z" fill="#3793DF" p-id="10987"></path><path d="M315.733333 537.6c-47.786667 0-85.333333-37.546667-85.333333-85.333333s37.546667-85.333333 85.333333-85.333334 85.333333 37.546667 85.333334 85.333334-37.546667 85.333333-85.333334 85.333333z m0-102.4c-10.24 0-17.066667 6.826667-17.066666 17.066667s6.826667 17.066667 17.066666 17.066666 17.066667-6.826667 17.066667-17.066666-6.826667-17.066667-17.066667-17.066667z" fill="#EB4AF4" p-id="10988"></path></svg>